<mxfile host="app.diagrams.net" modified="2024-06-04T13:41:14.192Z" agent="Mozilla/5.0 (X11; Linux x86_64) AppleWebKit/537.36 (KHTML, like Gecko) Chrome/125.0.0.0 Safari/537.36" etag="xcI7axI_2wsq2uTZWL8M" version="24.4.8" type="github">
  <diagram id="C5RBs43oDa-KdzZeNtuy" name="diagrama">
    <mxGraphModel dx="769" dy="423" grid="1" gridSize="10" guides="1" tooltips="1" connect="1" arrows="1" fold="1" page="1" pageScale="1" pageWidth="827" pageHeight="1169" math="0" shadow="0">
      <root>
        <mxCell id="WIyWlLk6GJQsqaUBKTNV-0" />
        <mxCell id="WIyWlLk6GJQsqaUBKTNV-1" parent="WIyWlLk6GJQsqaUBKTNV-0" />
        <mxCell id="4APfDiIKkPMKTrTYYOMZ-6" style="edgeStyle=orthogonalEdgeStyle;rounded=0;orthogonalLoop=1;jettySize=auto;html=1;entryX=0.5;entryY=0;entryDx=0;entryDy=0;" edge="1" parent="WIyWlLk6GJQsqaUBKTNV-1" source="4APfDiIKkPMKTrTYYOMZ-0" target="4APfDiIKkPMKTrTYYOMZ-3">
          <mxGeometry relative="1" as="geometry" />
        </mxCell>
        <mxCell id="4APfDiIKkPMKTrTYYOMZ-0" value="Mohler Dataset (Inglês)" style="strokeWidth=2;html=1;shape=mxgraph.flowchart.database;whiteSpace=wrap;" vertex="1" parent="WIyWlLk6GJQsqaUBKTNV-1">
          <mxGeometry x="80" y="280" width="160" height="80" as="geometry" />
        </mxCell>
        <mxCell id="4APfDiIKkPMKTrTYYOMZ-7" style="edgeStyle=orthogonalEdgeStyle;rounded=0;orthogonalLoop=1;jettySize=auto;html=1;entryX=0.5;entryY=0;entryDx=0;entryDy=0;" edge="1" parent="WIyWlLk6GJQsqaUBKTNV-1" source="4APfDiIKkPMKTrTYYOMZ-1" target="4APfDiIKkPMKTrTYYOMZ-4">
          <mxGeometry relative="1" as="geometry" />
        </mxCell>
        <mxCell id="4APfDiIKkPMKTrTYYOMZ-1" value="Mardini Dataset (Espanhol)" style="strokeWidth=2;html=1;shape=mxgraph.flowchart.database;whiteSpace=wrap;" vertex="1" parent="WIyWlLk6GJQsqaUBKTNV-1">
          <mxGeometry x="320" y="280" width="160" height="80" as="geometry" />
        </mxCell>
        <mxCell id="4APfDiIKkPMKTrTYYOMZ-8" style="edgeStyle=orthogonalEdgeStyle;rounded=0;orthogonalLoop=1;jettySize=auto;html=1;entryX=0.5;entryY=0;entryDx=0;entryDy=0;" edge="1" parent="WIyWlLk6GJQsqaUBKTNV-1" source="4APfDiIKkPMKTrTYYOMZ-2" target="4APfDiIKkPMKTrTYYOMZ-5">
          <mxGeometry relative="1" as="geometry" />
        </mxCell>
        <mxCell id="4APfDiIKkPMKTrTYYOMZ-2" value="Galhardi Dataset (Português)" style="strokeWidth=2;html=1;shape=mxgraph.flowchart.database;whiteSpace=wrap;" vertex="1" parent="WIyWlLk6GJQsqaUBKTNV-1">
          <mxGeometry x="560" y="280" width="160" height="80" as="geometry" />
        </mxCell>
        <mxCell id="4APfDiIKkPMKTrTYYOMZ-10" style="edgeStyle=orthogonalEdgeStyle;rounded=0;orthogonalLoop=1;jettySize=auto;html=1;entryX=0.5;entryY=0;entryDx=0;entryDy=0;" edge="1" parent="WIyWlLk6GJQsqaUBKTNV-1" source="4APfDiIKkPMKTrTYYOMZ-3">
          <mxGeometry relative="1" as="geometry">
            <mxPoint x="400" y="600" as="targetPoint" />
            <Array as="points">
              <mxPoint x="160" y="570" />
              <mxPoint x="400" y="570" />
            </Array>
          </mxGeometry>
        </mxCell>
        <mxCell id="4APfDiIKkPMKTrTYYOMZ-3" value="Tratamento dos dado para um formato padrão" style="rounded=1;whiteSpace=wrap;html=1;absoluteArcSize=1;arcSize=14;strokeWidth=2;" vertex="1" parent="WIyWlLk6GJQsqaUBKTNV-1">
          <mxGeometry x="110" y="410" width="100" height="100" as="geometry" />
        </mxCell>
        <mxCell id="4APfDiIKkPMKTrTYYOMZ-11" style="edgeStyle=orthogonalEdgeStyle;rounded=0;orthogonalLoop=1;jettySize=auto;html=1;entryX=0.5;entryY=0;entryDx=0;entryDy=0;" edge="1" parent="WIyWlLk6GJQsqaUBKTNV-1" source="4APfDiIKkPMKTrTYYOMZ-4">
          <mxGeometry relative="1" as="geometry">
            <mxPoint x="400" y="600" as="targetPoint" />
          </mxGeometry>
        </mxCell>
        <mxCell id="4APfDiIKkPMKTrTYYOMZ-4" value="Tratamento dos dado para um formato padrão" style="rounded=1;whiteSpace=wrap;html=1;absoluteArcSize=1;arcSize=14;strokeWidth=2;" vertex="1" parent="WIyWlLk6GJQsqaUBKTNV-1">
          <mxGeometry x="350" y="410" width="100" height="100" as="geometry" />
        </mxCell>
        <mxCell id="4APfDiIKkPMKTrTYYOMZ-12" style="edgeStyle=orthogonalEdgeStyle;rounded=0;orthogonalLoop=1;jettySize=auto;html=1;entryX=0.5;entryY=0;entryDx=0;entryDy=0;" edge="1" parent="WIyWlLk6GJQsqaUBKTNV-1" source="4APfDiIKkPMKTrTYYOMZ-5">
          <mxGeometry relative="1" as="geometry">
            <mxPoint x="400" y="600" as="targetPoint" />
            <Array as="points">
              <mxPoint x="640" y="570" />
              <mxPoint x="400" y="570" />
            </Array>
          </mxGeometry>
        </mxCell>
        <mxCell id="4APfDiIKkPMKTrTYYOMZ-5" value="Tratamento dos dado para um formato padrão" style="rounded=1;whiteSpace=wrap;html=1;absoluteArcSize=1;arcSize=14;strokeWidth=2;" vertex="1" parent="WIyWlLk6GJQsqaUBKTNV-1">
          <mxGeometry x="590" y="410" width="100" height="100" as="geometry" />
        </mxCell>
        <mxCell id="4APfDiIKkPMKTrTYYOMZ-30" style="edgeStyle=orthogonalEdgeStyle;rounded=0;orthogonalLoop=1;jettySize=auto;html=1;entryX=0.5;entryY=0;entryDx=0;entryDy=0;" edge="1" parent="WIyWlLk6GJQsqaUBKTNV-1" source="4APfDiIKkPMKTrTYYOMZ-13" target="4APfDiIKkPMKTrTYYOMZ-21">
          <mxGeometry relative="1" as="geometry" />
        </mxCell>
        <mxCell id="4APfDiIKkPMKTrTYYOMZ-31" style="edgeStyle=orthogonalEdgeStyle;rounded=0;orthogonalLoop=1;jettySize=auto;html=1;entryX=0.5;entryY=0;entryDx=0;entryDy=0;" edge="1" parent="WIyWlLk6GJQsqaUBKTNV-1" source="4APfDiIKkPMKTrTYYOMZ-13" target="4APfDiIKkPMKTrTYYOMZ-20">
          <mxGeometry relative="1" as="geometry" />
        </mxCell>
        <mxCell id="4APfDiIKkPMKTrTYYOMZ-32" style="edgeStyle=orthogonalEdgeStyle;rounded=0;orthogonalLoop=1;jettySize=auto;html=1;entryX=0.5;entryY=0;entryDx=0;entryDy=0;" edge="1" parent="WIyWlLk6GJQsqaUBKTNV-1" source="4APfDiIKkPMKTrTYYOMZ-13" target="4APfDiIKkPMKTrTYYOMZ-22">
          <mxGeometry relative="1" as="geometry" />
        </mxCell>
        <mxCell id="4APfDiIKkPMKTrTYYOMZ-13" value="Leitura dos dados padronizados separando cada fonte de dados diferente" style="rounded=1;whiteSpace=wrap;html=1;" vertex="1" parent="WIyWlLk6GJQsqaUBKTNV-1">
          <mxGeometry x="320" y="600" width="160" height="80" as="geometry" />
        </mxCell>
        <mxCell id="4APfDiIKkPMKTrTYYOMZ-17" style="edgeStyle=orthogonalEdgeStyle;rounded=0;orthogonalLoop=1;jettySize=auto;html=1;entryX=0.5;entryY=0;entryDx=0;entryDy=0;" edge="1" parent="WIyWlLk6GJQsqaUBKTNV-1" source="4APfDiIKkPMKTrTYYOMZ-14" target="4APfDiIKkPMKTrTYYOMZ-16">
          <mxGeometry relative="1" as="geometry" />
        </mxCell>
        <mxCell id="4APfDiIKkPMKTrTYYOMZ-14" value="Regressão linear para obtenção dos pesos" style="rounded=1;whiteSpace=wrap;html=1;" vertex="1" parent="WIyWlLk6GJQsqaUBKTNV-1">
          <mxGeometry x="320" y="1000" width="160" height="80" as="geometry" />
        </mxCell>
        <mxCell id="4APfDiIKkPMKTrTYYOMZ-19" style="edgeStyle=orthogonalEdgeStyle;rounded=0;orthogonalLoop=1;jettySize=auto;html=1;entryX=0.5;entryY=0;entryDx=0;entryDy=0;" edge="1" parent="WIyWlLk6GJQsqaUBKTNV-1" source="4APfDiIKkPMKTrTYYOMZ-16" target="4APfDiIKkPMKTrTYYOMZ-18">
          <mxGeometry relative="1" as="geometry" />
        </mxCell>
        <mxCell id="4APfDiIKkPMKTrTYYOMZ-16" value="Execução dos testes com os pesos obtidos" style="rounded=1;whiteSpace=wrap;html=1;" vertex="1" parent="WIyWlLk6GJQsqaUBKTNV-1">
          <mxGeometry x="320" y="1120" width="160" height="80" as="geometry" />
        </mxCell>
        <mxCell id="4APfDiIKkPMKTrTYYOMZ-18" value="Resultados do algoritmo&amp;nbsp;&lt;div&gt;para cada um dos Datasets diferente&lt;/div&gt;" style="rounded=1;whiteSpace=wrap;html=1;" vertex="1" parent="WIyWlLk6GJQsqaUBKTNV-1">
          <mxGeometry x="320" y="1240" width="160" height="80" as="geometry" />
        </mxCell>
        <mxCell id="4APfDiIKkPMKTrTYYOMZ-27" style="edgeStyle=orthogonalEdgeStyle;rounded=0;orthogonalLoop=1;jettySize=auto;html=1;entryX=0.5;entryY=0;entryDx=0;entryDy=0;" edge="1" parent="WIyWlLk6GJQsqaUBKTNV-1" source="4APfDiIKkPMKTrTYYOMZ-20" target="4APfDiIKkPMKTrTYYOMZ-23">
          <mxGeometry relative="1" as="geometry">
            <Array as="points">
              <mxPoint x="200" y="840" />
              <mxPoint x="400" y="840" />
            </Array>
          </mxGeometry>
        </mxCell>
        <mxCell id="4APfDiIKkPMKTrTYYOMZ-20" value="Cálculo da frequência de termos" style="rounded=1;whiteSpace=wrap;html=1;" vertex="1" parent="WIyWlLk6GJQsqaUBKTNV-1">
          <mxGeometry x="120" y="720" width="160" height="80" as="geometry" />
        </mxCell>
        <mxCell id="4APfDiIKkPMKTrTYYOMZ-26" style="edgeStyle=orthogonalEdgeStyle;rounded=0;orthogonalLoop=1;jettySize=auto;html=1;entryX=0.5;entryY=0;entryDx=0;entryDy=0;" edge="1" parent="WIyWlLk6GJQsqaUBKTNV-1" source="4APfDiIKkPMKTrTYYOMZ-21" target="4APfDiIKkPMKTrTYYOMZ-23">
          <mxGeometry relative="1" as="geometry" />
        </mxCell>
        <mxCell id="4APfDiIKkPMKTrTYYOMZ-21" value="Cálculo da distância de Levenshtein" style="rounded=1;whiteSpace=wrap;html=1;" vertex="1" parent="WIyWlLk6GJQsqaUBKTNV-1">
          <mxGeometry x="320" y="720" width="160" height="80" as="geometry" />
        </mxCell>
        <mxCell id="4APfDiIKkPMKTrTYYOMZ-28" style="edgeStyle=orthogonalEdgeStyle;rounded=0;orthogonalLoop=1;jettySize=auto;html=1;entryX=0.5;entryY=0;entryDx=0;entryDy=0;" edge="1" parent="WIyWlLk6GJQsqaUBKTNV-1" source="4APfDiIKkPMKTrTYYOMZ-22" target="4APfDiIKkPMKTrTYYOMZ-23">
          <mxGeometry relative="1" as="geometry">
            <Array as="points">
              <mxPoint x="600" y="840" />
              <mxPoint x="400" y="840" />
            </Array>
          </mxGeometry>
        </mxCell>
        <mxCell id="4APfDiIKkPMKTrTYYOMZ-22" value="Cálculo da similaridade semântica&lt;div&gt;(Usando o BERT&amp;nbsp;&lt;span style=&quot;background-color: initial;&quot;&gt;respectivo para cada idioma)&lt;/span&gt;&lt;/div&gt;" style="rounded=1;whiteSpace=wrap;html=1;" vertex="1" parent="WIyWlLk6GJQsqaUBKTNV-1">
          <mxGeometry x="520" y="720" width="160" height="80" as="geometry" />
        </mxCell>
        <mxCell id="4APfDiIKkPMKTrTYYOMZ-29" style="edgeStyle=orthogonalEdgeStyle;rounded=0;orthogonalLoop=1;jettySize=auto;html=1;entryX=0.5;entryY=0;entryDx=0;entryDy=0;" edge="1" parent="WIyWlLk6GJQsqaUBKTNV-1" source="4APfDiIKkPMKTrTYYOMZ-23" target="4APfDiIKkPMKTrTYYOMZ-14">
          <mxGeometry relative="1" as="geometry" />
        </mxCell>
        <mxCell id="4APfDiIKkPMKTrTYYOMZ-23" value="Normalização dos valores para a escala do valor mínimo e máximo das avaliações" style="rounded=1;whiteSpace=wrap;html=1;" vertex="1" parent="WIyWlLk6GJQsqaUBKTNV-1">
          <mxGeometry x="320" y="880" width="160" height="80" as="geometry" />
        </mxCell>
      </root>
    </mxGraphModel>
  </diagram>
</mxfile>
